
<svg width="119px" height="130px" viewBox="0 0 119 130" version="1.1" xmlns="http://www.w3.org/2000/svg" xmlns:xlink="http://www.w3.org/1999/xlink">
    <!-- Generator: Sketch 45.2 (43514) - http://www.bohemiancoding.com/sketch -->
    <desc>Created with Sketch.</desc>
    <defs></defs>
    <g id="Page-1" stroke="none" stroke-width="1" fill="none" fill-rule="evenodd">
        <g id="Текстовая-Copy" transform="translate(-553.000000, -623.000000)" fill-rule="nonzero" fill="#687734">
            <g id="Товар-Copy-4" transform="translate(496.000000, 585.000000)">
                <g id="brain" transform="translate(56.000000, 38.000000)">
                    <path d="M116.288727,49.488 C114.6,46.8632727 113.657455,41.1730909 113.866909,37.7105455 C114.357818,29.6225455 110.059636,21.5912727 103.418182,18.1832727 C102.137455,17.5243636 100.985455,17.1927273 99.9687273,16.9003636 C98.2210909,16.3963636 97.4989091,16.1869091 96.8378182,14.8145455 C93.3556364,7.57745455 89.5025455,6.56509091 82.1956364,7.03854545 C81.5105455,7.16727273 80.5985455,6.03490909 79.6581818,5.03127273 C78.0414545,3.30109091 75.8814545,0.990545455 72.456,0.597818182 L71.3541818,0.488727273 C66.8574545,0.488727273 62.8123636,2.11636364 60.4647273,4.51854545 C59.3018182,3.26181818 57.8247273,2.16218182 56.3432727,1.37672727 C53.4589091,-0.152727273 50.7578182,-0.416727273 48.8225455,0.643636364 C45.4232727,1.31563636 43.2458182,3.47127273 41.6356364,5.064 C40.3636364,6.32290909 39.5672727,7.12363636 38.8407273,7.03636364 C31.5294545,6.56727273 27.6829091,7.57963636 24.1985455,14.8123636 C23.5396364,16.1847273 22.8174545,16.3941818 21.0698182,16.8981818 C20.0552727,17.1905455 18.9032727,17.5221818 17.6203636,18.1810909 C10.9789091,21.5912727 6.68290909,29.6203636 7.17163636,37.7083636 C7.38109091,41.1730909 6.43854545,46.8610909 4.74981818,49.4858182 C0.589090909,55.9614545 0.589090909,65.0072727 4.74981818,71.4829091 C5.39345455,72.4821818 6.336,73.6450909 7.42690909,74.9934545 C9.37309091,77.3978182 12.6327273,81.4189091 12.5214545,83.2603636 C12.0261818,91.4116364 17.0007273,100.804364 23.6094545,104.197091 C24.7985455,104.808 24.9992727,105.425455 25.4487273,107.295273 C25.6974545,108.329455 26.0072727,109.614545 26.6749091,110.997818 C28.4705455,114.730909 31.2872727,115.802182 33.3425455,116.585455 C35.3847273,117.36 36.2290909,117.682909 36.5389091,119.921455 C37.5447273,127.208727 42.1309091,129.768 46.3352727,129.768 C46.5752727,129.768 46.8130909,129.759273 47.0509091,129.744 C52.2043636,129.388364 57.6043636,125.443636 60.5192727,119.352 C63.4341818,125.445818 68.832,129.390545 73.9876364,129.744 C74.2232727,129.759273 74.4632727,129.768 74.7032727,129.768 C78.9076364,129.768 83.4938182,127.206545 84.4996364,119.921455 C84.8094545,117.682909 85.6538182,117.36 87.696,116.585455 C89.7512727,115.802182 92.568,114.730909 94.3658182,110.997818 C95.0312727,109.614545 95.3410909,108.327273 95.5898182,107.295273 C96.0414545,105.427636 96.24,104.808 97.4290909,104.197091 C104.035636,100.804364 109.010182,91.4138182 108.517091,83.2603636 C108.405818,81.4189091 111.665455,77.3956364 113.611636,74.9934545 C114.702545,73.6450909 115.645091,72.4821818 116.288727,71.4829091 C120.449455,65.0094545 120.449455,55.9614545 116.288727,49.488 Z M46.7541818,125.393455 C43.5316364,125.559273 41.4349091,123.460364 40.8654545,119.328 C40.2021818,114.528 37.1367273,113.360727 34.8981818,112.509818 C33.0850909,111.820364 31.6516364,111.274909 30.6109091,109.108364 C30.1461818,108.146182 29.9170909,107.192727 29.6945455,106.272 C29.6923636,106.261091 29.688,106.250182 29.6858182,106.239273 C29.8538182,105.929455 29.976,105.591273 29.976,105.213818 C29.976,99.1985455 34.8698182,94.3047273 40.8850909,94.3047273 C42.0894545,94.3047273 43.0669091,93.3294545 43.0669091,92.1229091 C43.0669091,90.9163636 42.0894545,89.9410909 40.8850909,89.9410909 C34.0232727,89.9410909 28.2087273,94.4901818 26.2865455,100.728 C26.0683636,100.588364 25.8567273,100.446545 25.6036364,100.317818 C20.5701818,97.7345455 16.4945455,89.8887273 16.8785455,83.5287273 C17.0923636,79.9941818 13.7607273,75.8792727 10.8196364,72.2487273 C9.85090909,71.0530909 8.93672727,69.9250909 8.424,69.1243636 C5.15345455,64.0385455 5.15345455,56.9345455 8.424,51.8487273 C10.6996364,48.3098182 11.7905455,41.7469091 11.5287273,37.4443636 C11.1469091,31.1323636 14.5461818,24.6654545 19.6145455,22.0625455 C20.52,21.5978182 21.4167273,21.3403636 22.2807273,21.0894545 C23.1970909,20.8254545 24.1658182,20.5309091 25.0952727,20.0181818 C25.2654545,20.0596364 25.4290909,20.1229091 25.6101818,20.1229091 C30.4232727,20.1229091 34.3374545,24.0370909 34.3374545,28.8501818 C34.3374545,30.0567273 35.3149091,31.032 36.5192727,31.032 C37.7236364,31.032 38.7010909,30.0567273 38.7010909,28.8501818 C38.7010909,22.6101818 34.3090909,17.3825455 28.4552727,16.08 C30.408,12.264 32.0618182,11.2843636 35.8690909,11.2843636 C36.6632727,11.2843636 37.5534545,11.3258182 38.5592727,11.3912727 C41.2712727,11.5592727 43.0952727,9.75927273 44.7054545,8.16436364 C46.2349091,6.65236364 47.6770909,5.22109091 49.9309091,4.87854545 L50.6487273,4.74545455 L50.9890909,4.43127273 C51.408,4.25018182 52.5818182,4.31781818 54.2989091,5.22763636 C56.8036364,6.55636364 58.3396364,8.56145455 58.3396364,9.21163636 L58.3396364,26.8167273 C49.7432727,27.8967273 43.0669091,35.2363636 43.0669091,44.1207273 C43.0669091,51.3403636 37.1956364,57.2116364 29.976,57.2116364 C28.7716364,57.2116364 27.7941818,58.1869091 27.7941818,59.3934545 C27.7941818,60.6 28.7716364,61.5752727 29.976,61.5752727 C39.6,61.5752727 47.4305455,53.7447273 47.4305455,44.1207273 C47.4305455,37.6472727 52.1585455,32.2712727 58.3396364,31.2261818 L58.3396364,109.575273 C58.3396364,119.247273 51.4887273,125.066182 46.7541818,125.393455 Z M112.616727,69.1243636 C112.104,69.9229091 111.189818,71.0530909 110.221091,72.2487273 C109.339636,73.3374545 108.429818,74.472 107.583273,75.6196364 C105.244364,68.7338182 98.7316364,63.7592727 91.0647273,63.7592727 C83.8450909,63.7592727 77.9738182,57.888 77.9738182,50.6683636 C77.9738182,49.4618182 76.9963636,48.4865455 75.792,48.4865455 C74.5876364,48.4865455 73.6101818,49.4618182 73.6101818,50.6683636 C73.6101818,60.2923636 81.4407273,68.1229091 91.0647273,68.1229091 C98.2843636,68.1229091 104.155636,73.9941818 104.155636,81.2138182 C104.155636,81.4690909 104.221091,81.7069091 104.301818,81.936 C104.192727,82.4749091 104.129455,83.0094545 104.16,83.5287273 C104.544,89.8887273 100.468364,97.7367273 95.4349091,100.317818 C95.184,100.446545 94.9723636,100.590545 94.752,100.728 C92.832,94.4901818 87.0152727,89.9410909 80.1534545,89.9410909 C78.9490909,89.9410909 77.9716364,90.9163636 77.9716364,92.1229091 C77.9716364,93.3294545 78.9490909,94.3047273 80.1534545,94.3047273 C86.1687273,94.3047273 91.0625455,99.1985455 91.0625455,105.213818 C91.0625455,105.591273 91.1847273,105.929455 91.3527273,106.239273 C91.3505455,106.250182 91.3461818,106.261091 91.344,106.272 C91.1214545,107.192727 90.8923636,108.144 90.4298182,109.108364 C89.3869091,111.272727 87.9556364,111.818182 86.1425455,112.509818 C83.904,113.360727 80.8363636,114.528 80.1752727,119.328 C79.6036364,123.462545 77.4850909,125.554909 74.2865455,125.393455 C69.552,125.068364 62.7010909,119.249455 62.7010909,109.577455 L62.7010909,9.21381818 C62.7010909,7.56872727 65.8821818,5.17963636 70.4050909,4.88290909 L71.4283636,4.90254545 C73.4203636,4.90254545 74.6618182,6.07636364 76.4705455,8.01163636 C78.0283636,9.67636364 79.8196364,11.5178182 82.4770909,11.3934545 C88.3330909,11.0225455 90.2443636,11.4829091 92.6247273,16.1716364 C87.9730909,17.4174545 84.5192727,21.6305455 84.5192727,26.6705455 C84.5192727,27.8770909 85.4967273,28.8523636 86.7010909,28.8523636 C87.9054545,28.8523636 88.8829091,27.8770909 88.8829091,26.6705455 C88.8829091,23.0618182 91.8196364,20.1250909 95.4283636,20.1250909 C95.6116364,20.1250909 95.7752727,20.064 95.9432727,20.0203636 C96.8727273,20.5330909 97.8414545,20.8276364 98.7578182,21.0916364 C99.6218182,21.3425455 100.518545,21.6 101.424,22.0647273 C106.490182,24.6654545 109.891636,31.1345455 109.509818,37.4465455 C109.248,41.7490909 110.338909,48.3098182 112.614545,51.8509091 C115.887273,56.9345455 115.887273,64.0363636 112.616727,69.1243636 Z" id="Shape"></path>
                    <path d="M52.9658182,60.7832727 C52.1127273,59.9301818 50.7338182,59.9301818 49.8807273,60.7832727 C46.8938182,63.768 45.2487273,67.7389091 45.2487273,71.9563636 C45.2487273,75.4887273 46.416,78.8356364 48.5432727,81.5869091 C46.416,84.3381818 45.2487273,87.6872727 45.2487273,91.2174545 C45.2487273,95.4370909 46.8938182,99.4058182 49.8807273,102.390545 C50.3061818,102.816 50.8647273,103.029818 51.4232727,103.029818 C51.9818182,103.029818 52.5403636,102.816 52.9658182,102.390545 C53.8189091,101.537455 53.8189091,100.158545 52.9658182,99.3054545 C50.8036364,97.1432727 49.6123636,94.2698182 49.6123636,91.2174545 C49.6123636,88.1650909 50.8036364,85.2916364 52.9658182,83.1294545 C53.8189091,82.2763636 53.8189091,80.8974545 52.9658182,80.0443636 C50.8036364,77.8821818 49.6123636,75.0087273 49.6123636,71.9563636 C49.6123636,68.904 50.8036364,66.0305455 52.9658182,63.8683636 C53.8167273,63.0174545 53.8167273,61.6363636 52.9658182,60.7832727 Z" id="Shape"></path>
                    <path d="M71.0181818,68.0770909 C70.1650909,68.9301818 70.1650909,70.3090909 71.0181818,71.1621818 C75.072,75.2181818 75.072,81.8181818 71.0181818,85.8741818 C68.2276364,88.6647273 66.6894545,92.3738182 66.6894545,96.3141818 C66.6894545,100.254545 68.2276364,103.963636 71.0181818,106.754182 C71.4436364,107.179636 72.0021818,107.393455 72.5607273,107.393455 C73.1192727,107.393455 73.6778182,107.179636 74.1032727,106.754182 C74.9563636,105.901091 74.9563636,104.522182 74.1032727,103.669091 C72.1374545,101.703273 71.0530909,99.0894545 71.0530909,96.3141818 C71.0530909,93.5389091 72.1374545,90.9250909 74.1032727,88.9592727 C79.8589091,83.2014545 79.8589091,73.8327273 74.1032727,68.0770909 C73.2501818,67.224 71.8690909,67.224 71.0181818,68.0770909 Z" id="Shape"></path>
                    <path d="M99.3905455,47.328 C93.7549091,48.3163636 88.3374545,44.5309091 87.3447273,38.8821818 C86.6618182,34.9963636 84.5083636,31.608 81.2814545,29.3454545 C78.0545455,27.0829091 74.1338182,26.2123636 70.248,26.8930909 C69.0610909,27.1025455 68.2669091,28.2327273 68.4763636,29.4196364 C68.6858182,30.6065455 69.8138182,31.3876364 71.0029091,31.1934545 C73.7476364,30.7003636 76.5032727,31.3265455 78.7767273,32.9170909 C81.0501818,34.512 82.5665455,36.8989091 83.0487273,39.6370909 C84.3076364,46.7956364 90.5541818,51.8530909 97.5883636,51.8530909 C98.4327273,51.8530909 99.288,51.7789091 100.147636,51.6283636 C101.334545,51.4189091 102.128727,50.2887273 101.919273,49.1018182 C101.709818,47.9149091 100.586182,47.1229091 99.3905455,47.328 Z" id="Shape"></path>
                    <path d="M25.3287273,49.7367273 C28.9178182,49.7367273 32.2996364,47.5287273 33.6130909,43.9701818 C34.0298182,42.8378182 33.4538182,41.5832727 32.3236364,41.1665455 C31.1956364,40.752 29.9367273,41.328 29.52,42.4581818 C28.6669091,44.7665455 26.0967273,45.9490909 23.7949091,45.096 C19.2349091,43.4203636 14.1512727,45.7570909 12.4669091,50.3170909 C12.0501818,51.4494545 12.6283636,52.704 13.7585455,53.1207273 C14.0072727,53.2123636 14.2625455,53.256 14.5134545,53.256 C15.4014545,53.256 16.2349091,52.7105455 16.56,51.8312727 C17.4109091,49.5250909 19.9723636,48.336 22.2850909,49.1934545 C23.2887273,49.56 24.3163636,49.7367273 25.3287273,49.7367273 Z" id="Shape"></path>
                    <path d="M32.2778182,83.1272727 C29.9738182,82.2785455 28.7890909,79.7105455 29.6378182,77.4065455 C29.6378182,77.4065455 29.6378182,77.4043636 29.6378182,77.4043636 C31.3221818,72.8421818 28.9789091,67.7607273 24.4167273,66.0741818 C23.2909091,65.6618182 22.0298182,66.2356364 21.6130909,67.3658182 C21.1963636,68.4981818 21.7723636,69.7527273 22.9025455,70.1694545 C25.2087273,71.0203636 26.3934545,73.5883636 25.5425455,75.8923636 C25.5425455,75.8945455 25.5425455,75.8967273 25.5425455,75.8967273 C23.8625455,80.4545455 26.2036364,85.536 30.7636364,87.2225455 C31.0123636,87.3141818 31.2676364,87.3578182 31.5207273,87.3578182 C32.4087273,87.3578182 33.2421818,86.8123636 33.5672727,85.9330909 C33.9861818,84.8007273 33.408,83.5483636 32.2778182,83.1272727 Z" id="Shape"></path>
                </g>
            </g>
        </g>
    </g>
</svg>