
<svg width="130px" height="74px" viewBox="0 0 130 74" version="1.1" xmlns="http://www.w3.org/2000/svg" xmlns:xlink="http://www.w3.org/1999/xlink">
    <!-- Generator: Sketch 45.2 (43514) - http://www.bohemiancoding.com/sketch -->
    <desc>Created with Sketch.</desc>
    <defs></defs>
    <g id="Page-1" stroke="none" stroke-width="1" fill="none" fill-rule="evenodd">
        <g id="Текстовая-Copy" transform="translate(-1059.000000, -376.000000)" fill-rule="nonzero" fill="#687734">
            <g id="Товар-Copy-3" transform="translate(1008.000000, 320.000000)">
                <g id="eye" transform="translate(51.000000, 56.000000)">
                    <path d="M127.666296,30.8340495 C120.39761,21.5143983 110.982342,13.8055697 100.43889,8.54155912 C89.676126,3.16801867 78.0975794,0.379939639 66.0105915,0.233731176 C65.6777016,0.224624767 64.3410831,0.224624767 64.0081932,0.233731176 C51.9214583,0.380192595 40.3426587,3.16801867 29.5798945,8.54155912 C19.0364431,13.8055697 9.62168046,21.5141453 2.35274207,30.8340495 C-0.447478843,34.4242514 -0.447478843,39.4391005 2.35274207,43.0293024 C9.62142751,52.3489537 19.0364431,60.0577822 29.5798945,65.3217928 C40.3426587,70.6953333 51.9212054,73.4834123 64.0081932,73.6296208 C64.3410831,73.6387272 65.6777016,73.6387272 66.0105915,73.6296208 C78.0973264,73.4831593 89.676126,70.6953333 100.43889,65.3217928 C110.982342,60.0577822 120.397357,52.3492066 127.666296,43.0293024 C130.466517,39.4385946 130.466517,34.4242514 127.666296,30.8340495 Z M31.9336484,60.6079611 C22.088608,55.6925237 13.2963696,48.4934011 6.50728843,39.7889384 C5.1952066,38.1065293 5.1952066,35.7568227 6.50728843,34.0744135 C13.2961167,25.3699509 22.088355,18.1708283 31.9336484,13.2553908 C34.729822,11.8595806 37.5851873,10.6524754 40.4934204,9.63053392 C33.0114932,16.3561232 28.2976615,26.1030168 28.2976615,36.9315495 C28.2976615,47.7605881 33.0117461,57.5082405 40.4944322,64.2335769 C37.5861991,63.2116354 34.730075,62.0040243 31.9336484,60.6079611 Z M65.0096453,68.3747166 C47.6715476,68.3747166 33.5662253,54.2693942 33.5662253,36.9312965 C33.5662253,19.5931988 47.6715476,5.48812944 65.0096453,5.48812944 C82.347743,5.48812944 96.4530654,19.5934518 96.4530654,36.9315495 C96.4530654,54.2696472 82.347743,68.3747166 65.0096453,68.3747166 Z M123.512002,39.7886855 C116.723174,48.4931481 107.930936,55.6922707 98.0856422,60.6077082 C95.292757,62.0020006 92.4391625,63.2037937 89.5344708,64.2247234 C97.0113389,57.4993871 101.721629,47.755529 101.721629,36.9312965 C101.721629,26.1012461 97.0065327,16.3530877 89.5233407,9.62749845 C92.4323326,10.6496929 95.2889627,11.8583158 98.0858952,13.2548849 C107.930936,18.1703223 116.723174,25.3694449 123.512255,34.0739076 C124.824084,35.7565697 124.824084,38.1062763 123.512002,39.7886855 Z" id="Shape"></path>
                    <path d="M65.0096453,23.4753118 C57.5899453,23.4753118 51.5536606,29.5115965 51.5536606,36.9312965 C51.5536606,44.3509966 57.5899453,50.3872813 65.0096453,50.3872813 C72.4293454,50.3872813 78.4656301,44.3509966 78.4656301,36.9312965 C78.465883,29.5115965 72.4295984,23.4753118 65.0096453,23.4753118 Z M65.0096453,45.1189705 C60.4951428,45.1189705 56.8219714,41.4463049 56.8219714,36.9312965 C56.8219714,32.4165411 60.4946369,28.7438756 65.0096453,28.7438756 C69.5241478,28.7438756 73.1970663,32.4165411 73.1970663,36.9312965 C73.1973193,41.4463049 69.5241478,45.1189705 65.0096453,45.1189705 Z" id="Shape"></path>
                </g>
            </g>
        </g>
    </g>
</svg>