
<svg width="120px" height="120px" viewBox="0 0 120 120" version="1.1" xmlns="http://www.w3.org/2000/svg" xmlns:xlink="http://www.w3.org/1999/xlink">
    <!-- Generator: Sketch 45.2 (43514) - http://www.bohemiancoding.com/sketch -->
    <desc>Created with Sketch.</desc>
    <defs></defs>
    <g id="Page-1" stroke="none" stroke-width="1" fill="none" fill-rule="evenodd">
        <g id="Текстовая-Copy" transform="translate(-295.000000, -624.000000)" fill-rule="nonzero" fill="#687734">
            <g id="Товар-Copy-7" transform="translate(240.000000, 585.000000)">
                <g id="epidermis" transform="translate(55.000000, 39.000000)">
                    <circle id="Oval" cx="90" cy="88" r="2"></circle>
                    <circle id="Oval" cx="100" cy="92" r="2"></circle>
                    <circle id="Oval" cx="86" cy="98" r="2"></circle>
                    <circle id="Oval" cx="80" cy="86" r="2"></circle>
                    <circle id="Oval" cx="78" cy="106" r="2"></circle>
                    <circle id="Oval" cx="40" cy="84" r="2"></circle>
                    <circle id="Oval" cx="34" cy="100" r="2"></circle>
                    <circle id="Oval" cx="32" cy="90" r="2"></circle>
                    <circle id="Oval" cx="20" cy="90" r="2"></circle>
                    <circle id="Oval" cx="14" cy="82" r="2"></circle>
                    <path d="M52.578,91.17 C51.592,93.636 51.89,96.422 53.378,98.62 C54.868,100.822 57.342,102.134 60,102.134 C62.658,102.134 65.13,100.822 66.622,98.62 C68.11,96.422 68.41,93.638 67.422,91.172 L62,77.614 L62,16 C62,14.894 61.106,14 60,14 C58.894,14 58,14.894 58,16 L58,77.614 L52.578,91.17 Z M63.308,96.376 C62.552,97.492 61.348,98.132 60,98.132 C58.652,98.132 57.448,97.492 56.692,96.376 C55.938,95.262 55.794,93.906 56.294,92.656 L60,83.386 L63.708,92.658 C64.208,93.906 64.062,95.264 63.308,96.376 Z" id="Shape"></path>
                    <path d="M119.988,62 L119.948,62 C119.972,61.334 120,60.67 120,60 C120,26.916 93.084,0 60,0 C26.916,0 0,26.916 0,60 C0,60.67 0.028,61.334 0.05,62 L0.01,62 L0.072,62.924 C0.088,63.238 0.116,63.55 0.136,63.862 L0.154,64.136 C0.158,64.184 0.164,64.232 0.168,64.28 C0.232,65.194 0.316,66.102 0.42,67.004 C0.426,67.06 0.434,67.116 0.442,67.172 C0.552,68.09 0.68,69 0.83,69.904 C0.834,69.934 0.84,69.964 0.846,69.994 C1.104,71.528 1.414,73.042 1.788,74.534 L1.77,74.544 L2.178,76.022 C2.202,76.11 2.238,76.194 2.262,76.282 C2.69,77.798 3.162,79.294 3.704,80.758 C3.718,80.794 3.732,80.828 3.746,80.864 C4.252,82.226 4.816,83.558 5.418,84.87 C5.53,85.114 5.636,85.362 5.75,85.604 C6.336,86.842 6.968,88.054 7.636,89.244 C7.816,89.566 8.002,89.886 8.188,90.204 C8.87,91.368 9.578,92.516 10.334,93.628 C10.484,93.848 10.644,94.06 10.798,94.28 C11.506,95.294 12.246,96.282 13.014,97.248 C13.182,97.46 13.344,97.678 13.516,97.886 C14.4,98.968 15.326,100.012 16.28,101.03 C16.454,101.216 16.63,101.398 16.806,101.582 C17.83,102.644 18.884,103.674 19.982,104.66 C19.986,104.662 19.988,104.666 19.992,104.668 C27.204,111.134 35.984,115.876 45.684,118.26 C45.74,118.274 45.796,118.286 45.852,118.3 C46.7,118.506 47.554,118.698 48.416,118.868 C48.58,118.9 48.748,118.926 48.912,118.958 C49.246,119.02 49.582,119.082 49.92,119.138 C50.01,119.154 50.1,119.17 50.19,119.186 C50.532,119.242 50.872,119.302 51.216,119.352 C51.512,119.396 51.81,119.426 52.106,119.466 C52.762,119.552 53.416,119.642 54.078,119.706 C54.3,119.728 54.524,119.74 54.746,119.76 C54.972,119.78 55.198,119.792 55.424,119.81 C55.468,119.814 55.512,119.816 55.556,119.82 C56.038,119.856 56.518,119.902 57.004,119.926 C57.998,119.974 58.996,120 60,120 C61.004,120 62.002,119.974 62.994,119.924 C63.48,119.9 63.96,119.854 64.442,119.818 C64.508,119.814 64.576,119.808 64.642,119.804 C64.928,119.782 65.214,119.768 65.498,119.742 C65.638,119.73 65.78,119.72 65.92,119.706 C66.582,119.64 67.236,119.552 67.892,119.466 C68.188,119.426 68.488,119.396 68.782,119.352 C69.092,119.306 69.4,119.254 69.708,119.204 C70.166,119.13 70.618,119.044 71.07,118.96 C71.074,118.96 71.08,118.958 71.084,118.958 C71.25,118.926 71.416,118.902 71.58,118.868 C72.442,118.698 73.296,118.506 74.144,118.3 C74.192,118.288 74.24,118.28 74.288,118.268 C75.088,118.074 75.878,117.852 76.666,117.626 C77.276,117.45 77.882,117.268 78.482,117.074 C93.802,112.152 106.526,101.25 113.71,86.698 C114.014,86.09 114.304,85.474 114.588,84.854 C114.85,84.274 115.12,83.7 115.364,83.11 C115.884,81.868 116.352,80.6 116.79,79.318 C116.876,79.064 116.966,78.812 117.048,78.554 C117.536,77.058 117.964,75.536 118.334,73.99 C118.344,73.946 118.36,73.904 118.372,73.858 L118.63,72.772 L118.62,72.762 C118.82,71.846 118.996,70.922 119.152,69.992 C119.158,69.962 119.162,69.932 119.168,69.902 C119.318,68.998 119.446,68.088 119.556,67.17 C119.562,67.114 119.57,67.058 119.578,67.002 C119.684,66.1 119.766,65.192 119.83,64.278 C119.834,64.23 119.84,64.184 119.844,64.134 L119.862,63.86 C119.882,63.546 119.91,63.236 119.926,62.922 L119.988,62 Z M52,71.604 L50.804,74.502 C48.91,74.77 47.032,74.206 45.672,72.844 L44.672,71.844 C40.726,67.898 34.302,67.896 30.358,71.844 L29.358,72.844 C26.972,75.23 23.088,75.23 20.702,72.844 L19.672,71.814 C15.726,67.868 9.302,67.866 5.358,71.814 L5.294,71.878 C4.876,69.954 4.546,67.994 4.334,66 L47.026,66 C49.768,66 52,68.232 52,70.974 L52,71.604 Z M55.836,115.828 C55.594,115.81 55.352,115.794 55.11,115.772 C53.8,115.656 52.502,115.496 51.216,115.292 C51.01,115.26 50.806,115.224 50.602,115.19 C49.264,114.96 47.936,114.692 46.628,114.368 C46.522,114.342 46.416,114.31 46.31,114.284 C44.966,113.944 43.638,113.558 42.332,113.122 C42.294,113.11 42.256,113.098 42.218,113.086 C40.95,112.658 39.708,112.176 38.478,111.662 C38.266,111.574 38.052,111.486 37.842,111.394 C36.702,110.9 35.58,110.366 34.478,109.798 C34.198,109.654 33.922,109.504 33.644,109.356 C32.596,108.794 31.562,108.206 30.552,107.58 C30.248,107.39 29.952,107.188 29.65,106.992 C28.894,106.504 28.152,105.994 27.42,105.47 C26.938,105.124 26.458,104.772 25.988,104.41 C25.316,103.896 24.66,103.364 24.012,102.822 C23.558,102.44 23.106,102.058 22.666,101.662 C21.98,101.048 21.31,100.416 20.654,99.768 C20.174,99.294 19.708,98.81 19.246,98.318 C18.892,97.942 18.548,97.556 18.202,97.17 C17.496,96.378 16.81,95.568 16.15,94.736 C15.856,94.366 15.568,93.994 15.284,93.616 C14.656,92.784 14.052,91.932 13.47,91.064 C13.162,90.604 12.854,90.142 12.56,89.672 C12.214,89.122 11.872,88.568 11.544,88.006 C11.06,87.17 10.596,86.32 10.154,85.454 C9.9,84.958 9.656,84.456 9.416,83.95 C8.958,82.984 8.516,82.01 8.112,81.014 C7.96,80.64 7.822,80.256 7.678,79.878 C7.29,78.858 6.924,77.826 6.594,76.776 C6.546,76.62 6.49,76.468 6.442,76.312 C6.696,76.106 6.938,75.894 7.16,75.672 L8.19,74.642 C10.5,72.33 14.534,72.33 16.848,74.642 L17.878,75.672 C19.79,77.584 22.332,78.636 25.034,78.636 C27.736,78.636 30.278,77.584 32.19,75.672 L33.19,74.672 C35.578,72.286 39.464,72.288 41.848,74.672 L42.848,75.672 C44.512,77.336 46.708,78.336 49.01,78.556 L45.15,88.2 C43.178,93.134 43.776,98.706 46.754,103.104 C49.734,107.506 54.686,110.134 60,110.134 C65.314,110.134 70.266,107.508 73.246,103.104 C76.224,98.704 76.822,93.134 74.85,88.202 L74.846,88.192 C74.844,88.188 74.844,88.184 74.842,88.18 L74.816,88.118 L70.62,77.626 C74.392,79.444 79.064,78.79 82.184,75.67 C84.574,73.284 88.46,73.288 90.842,75.67 C92.754,77.582 95.296,78.634 97.998,78.634 C100.7,78.634 103.242,77.582 105.154,75.67 L106.184,74.64 C108.366,72.46 111.794,72.274 114.186,74.072 C114.138,74.254 114.084,74.434 114.034,74.616 C113.744,75.694 113.416,76.752 113.068,77.8 C112.84,78.476 112.6,79.144 112.348,79.806 C112.12,80.41 111.88,81.008 111.634,81.602 C105.132,97.066 91.886,108.97 75.718,113.73 C75.622,113.758 75.528,113.788 75.432,113.816 C75.412,113.822 75.392,113.826 75.374,113.832 C74.642,114.042 73.904,114.238 73.162,114.418 C73.09,114.436 73.016,114.452 72.944,114.468 C72.046,114.678 71.142,114.874 70.23,115.042 C70.124,115.062 70.016,115.08 69.908,115.1 C69.502,115.174 69.094,115.24 68.686,115.304 C67.514,115.486 66.334,115.642 65.142,115.75 C64.84,115.778 64.536,115.796 64.234,115.82 C62.834,115.928 61.426,116 60,116 C58.602,116 57.214,115.932 55.836,115.828 Z M68,70.996 L68,70.976 C68,68.232 70.232,66 72.974,66 L115.666,66 C115.522,67.346 115.316,68.674 115.078,69.99 C111.28,68.066 106.528,68.642 103.358,71.814 L102.328,72.844 C100.016,75.156 95.984,75.156 93.672,72.844 C89.728,68.898 83.304,68.894 79.358,72.844 C76.972,75.23 73.088,75.23 70.702,72.844 L68.512,70.726 L68,70.996 Z M4,60 C4,29.122 29.122,4 60,4 C90.878,4 116,29.122 116,60 C116,60.67 115.972,61.334 115.95,62 L72.974,62 C68.026,62 64,66.026 64,70.974 L64,72.392 L71.134,89.684 C72.614,93.384 72.166,97.56 69.932,100.86 C67.698,104.16 63.984,106.132 59.998,106.132 C56.012,106.132 52.298,104.162 50.064,100.86 C47.834,97.566 47.384,93.394 48.858,89.694 L55.998,72.394 L55.998,70.972 C56,66.026 51.974,62 47.026,62 L4.05,62 C4.028,61.334 4,60.67 4,60 Z" id="Shape"></path>
                </g>
            </g>
        </g>
    </g>
</svg>