
<svg width="110px" height="110px" viewBox="0 0 110 110" version="1.1" xmlns="http://www.w3.org/2000/svg" xmlns:xlink="http://www.w3.org/1999/xlink">
    <!-- Generator: Sketch 45.2 (43514) - http://www.bohemiancoding.com/sketch -->
    <desc>Created with Sketch.</desc>
    <defs></defs>
    <g id="Page-1" stroke="none" stroke-width="1" fill="none" fill-rule="evenodd">
        <g id="Текстовая-Copy" transform="translate(-1069.000000, -617.000000)" fill-rule="nonzero" fill="#687734">
            <g id="Товар-Copy-6" transform="translate(1008.000000, 585.000000)">
                <g id="hammer" transform="translate(61.000000, 32.000000)">
                    <path d="M107.2225,29.2233333 L102.936167,24.937 L103.178167,24.695 C103.895,23.9781667 103.895,22.8195 103.178167,22.1026667 L96.7853333,15.7116667 L98.5655,13.9315 C99.2823333,13.2146667 99.2823333,12.056 98.5655,11.3391667 C97.8486667,10.6223333 96.69,10.6223333 95.9731667,11.3391667 L94.193,13.1193333 L87.7983333,6.72283333 C87.0815,6.006 85.9228333,6.006 85.206,6.72283333 L84.964,6.96483333 L80.6795,2.68033333 C77.1045,-0.894666667 71.2873333,-0.891 67.716,2.68033333 L65.7818333,4.6145 C62.2086667,8.18766667 62.2086667,14.0048333 65.7818333,17.578 L70.0663333,21.8625 L69.8243333,22.1045 C69.4796667,22.4491667 69.2871667,22.9148333 69.2871667,23.4006667 C69.2871667,23.8883333 69.4796667,24.354 69.8243333,24.6986667 L76.219,31.0933333 L69.0561667,38.2561667 L64.6965,37.2496667 C62.6835,36.784 60.6155,37.3798333 59.158,38.8391667 L9.6635,88.33 C9.6635,88.3318333 9.66166667,88.3318333 9.66166667,88.3318333 L2.59233333,95.4011667 C0.977166667,97.0145 0.088,99.1613333 0.088,101.445667 C0.088,103.73 0.977166667,105.876833 2.59233333,107.490167 C4.25883333,109.156667 6.44966667,109.989 8.63683333,109.989 C10.8258333,109.989 13.0166667,109.154833 14.6831667,107.490167 L75.779,46.3925 C76.857,45.3145 77.2676667,43.7341667 76.846,42.2675 C76.4261667,40.8026667 75.2418333,39.6788333 73.755,39.336 L73.2673333,39.2241667 L78.8113333,33.682 L85.206,40.0766667 C85.5635,40.4341667 86.0328333,40.6138333 86.5021667,40.6138333 C86.9715,40.6138333 87.4408333,40.4341667 87.7983333,40.0785 L88.0403333,39.8365 L92.3248333,44.121 C94.1123333,45.9085 96.459,46.8013333 98.8056667,46.8013333 C101.154167,46.8013333 103.502667,45.9085 105.288333,44.121 L107.2225,42.1868333 C110.7975,38.6136667 110.7975,32.7983333 107.2225,29.2233333 Z M24.6455,92.3431667 L20.3298333,82.8483333 L24.684,78.4941667 L28.9996667,87.989 L24.6455,92.3431667 Z M17.5211667,99.4675 L13.2055,89.9726667 L17.5596667,85.6185 L21.8753333,95.1133333 L17.5211667,99.4675 Z M12.0908333,104.899667 C10.1878333,106.800833 7.09133333,106.8045 5.18466667,104.899667 C4.2625,103.9775 3.75466667,102.751 3.75466667,101.4475 C3.75466667,100.144 4.2625,98.9175 5.18466667,97.9953333 L10.4371667,92.7428333 L14.7528333,102.237667 L12.0908333,104.899667 Z M73.1866667,43.802 L31.7698333,85.2206667 L27.4541667,75.7258333 L61.7485,41.4315 C62.1811667,40.997 62.7586667,40.7623333 63.3545,40.7623333 C63.5268333,40.7623333 63.6991667,40.7825 63.8715,40.8228333 L72.9318333,42.9146667 C73.183,42.9715 73.2801667,43.1456667 73.3205,43.2831667 C73.3608333,43.4188333 73.37,43.6186667 73.1866667,43.802 Z M68.3741667,7.20683333 L70.3083333,5.27266667 C72.4515,3.13133333 75.9403333,3.1295 78.0871667,5.27266667 L83.6678333,10.8533333 L83.6678333,10.8533333 L83.9098333,11.0953333 L74.1986667,20.8083333 L73.9566667,20.5663333 L73.9566667,20.5663333 L68.3741667,14.9856667 C66.231,12.8406667 66.231,9.35183333 68.3741667,7.20683333 Z M75.4948333,24.6968333 L87.7983333,12.3915 C87.8808333,12.309 87.9541667,12.221 88.0165,12.1275 L97.7735,21.8845 C97.68,21.9486667 97.592,22.022 97.5095,22.1045 L85.2041667,34.4098333 C85.1216667,34.4905 85.0483333,34.5803333 84.986,34.6738333 L75.229,24.9168333 C75.3243333,24.8526667 75.4123333,24.7793333 75.4948333,24.6968333 Z M104.630167,39.5945 L102.696,41.5286667 C100.551,43.67 97.0621667,43.6736667 94.9171667,41.5286667 L89.342,35.9535 C89.3401667,35.9516667 89.3383333,35.948 89.3365,35.9461667 L89.0945,35.7041667 L98.8056667,25.993 L99.0476667,26.235 L99.0476667,26.235 L104.630167,31.8156667 C106.773333,33.9606667 106.773333,37.4495 104.630167,39.5945 Z" id="Shape"></path>
                </g>
            </g>
        </g>
    </g>
</svg>