
<svg width="100px" height="124px" viewBox="0 0 100 124" version="1.1" xmlns="http://www.w3.org/2000/svg" xmlns:xlink="http://www.w3.org/1999/xlink">
    <!-- Generator: Sketch 45.2 (43514) - http://www.bohemiancoding.com/sketch -->
    <desc>Created with Sketch.</desc>
    <defs></defs>
    <g id="Page-1" stroke="none" stroke-width="1" fill="none" fill-rule="evenodd">
        <g id="Текстовая-Copy" transform="translate(-306.000000, -355.000000)" fill-rule="nonzero" fill="#687734">
            <g id="Товар" transform="translate(240.000000, 320.000000)">
                <g id="heart" transform="translate(66.000000, 35.000000)">
                    <path d="M95.4273064,54.4108178 L94.7005103,54.2415073 L95.2084416,53.698475 C97.110087,51.6584906 97.0006547,48.4498511 94.962735,46.5420114 L93.3067962,44.9975698 C92.3177754,44.0766861 91.0272994,43.5811433 89.6790101,43.6410214 C88.3265913,43.6864462 87.073281,44.2563204 86.1503326,45.2432764 L81.1143791,50.6405631 C78.0812444,46.3190172 74.0508298,42.3732578 68.5441107,39.0076965 C70.5262818,38.6546222 72.1347311,38.2292813 73.5181213,37.4405424 L84.8866985,37.4405424 C89.4415626,37.4405424 93.1457448,33.7363602 93.1457448,29.1814961 C93.1457448,24.6266321 89.4415626,20.9224499 84.8866985,20.9224499 L72.5001939,20.9224499 C71.0115008,20.2142366 69.2316763,19.8590977 66.7952577,19.8322558 C66.367852,19.8281262 65.9817416,19.5411244 65.8392731,19.1178482 C65.5047817,18.1453455 65.1228008,17.1934905 64.6953951,16.2746716 L66.5970405,14.3730262 C69.8180686,11.1519981 69.8180686,5.91369801 66.5970405,2.69473472 C63.4771858,-0.425120013 58.0386038,-0.429249536 54.9166843,2.69473472 L52.6888066,4.92261245 C48.5324416,3.69820884 44.1592766,4.35480302 40.2403591,6.81186929 C39.9079325,7.02453973 39.418584,6.89445975 39.1460355,6.53519124 C38.1528852,5.20754955 36.9511939,3.72092122 35.2746075,2.86817469 C32.8402536,1.63344727 29.2227914,2.78764899 27.4305783,4.00585832 C25.7932224,5.12082956 25.7601862,7.53247108 26.2144338,10.8133772 C26.3796147,12.0088742 26.7719194,13.2332778 27.147706,14.4184509 C27.3830888,15.1597003 27.7299688,16.2519592 27.8703725,16.9787553 L27.8806963,17.4453914 C27.8848259,17.5816656 27.8786316,17.6580618 27.8848259,17.6766447 C27.8394011,17.7406523 27.7671345,17.8025951 27.7072564,17.8666027 C27.641184,17.9347399 27.5854354,18.0049418 27.5007802,18.0710141 C27.4223193,18.1350217 27.321146,18.1928351 27.2282317,18.2547779 C27.1270584,18.3208503 27.0362089,18.3889874 26.9205822,18.452995 C26.8132146,18.5128731 26.6872642,18.5665569 26.567508,18.6223055 C26.4436223,18.6821836 26.3279956,18.7420616 26.1937861,18.7978102 C26.0533824,18.8556235 25.90059,18.9051778 25.7498624,18.9588616 C25.6197824,19.0042864 25.4958967,19.0559054 25.3575577,19.0972006 C25.182053,19.1508844 24.9941597,19.1963092 24.8103959,19.2437987 C24.688575,19.2747701 24.5708836,19.3119358 24.4469979,19.3387777 C24.2322627,19.3862673 24.0154627,19.4213682 23.796598,19.4564691 C23.6974894,19.4729872 23.5983809,19.4956996 23.4972075,19.5101529 C23.2535657,19.5431891 23.0057943,19.561772 22.7580229,19.5782901 C22.6898858,19.5824196 22.6196839,19.5948082 22.5536115,19.5968729 C22.2397677,19.6113263 21.9321183,19.6092615 21.6368574,19.5886139 C21.164027,19.5597072 20.7097794,19.5431891 20.2699852,19.5473187 L10.4788858,9.75621929 C8.5627871,7.84425007 5.22406764,7.8483796 3.31829271,9.75621929 L1.71397297,11.3584743 C-0.259939087,13.3323863 -0.259939087,16.5430906 1.71397297,18.5170026 L11.6826418,28.4836067 C11.6702533,28.6962772 11.6599295,28.9110124 11.6537352,29.1360714 C11.5030076,35.5946456 11.3481505,42.2741493 9.1966689,47.9295312 C8.80229944,48.9660415 8.43270712,50.0314585 8.07756813,51.1299116 C7.77611294,52.044601 7.5097587,52.9530961 7.25372827,53.8595264 C7.2248216,53.9627645 7.19178542,54.0556788 7.16287876,54.1589169 L6.9832445,54.8031225 C6.90478356,55.0963186 6.80980453,55.3936443 6.73547311,55.6868404 L6.2151532,57.5533849 L6.32871508,57.526543 C2.63072711,74.3378317 6.79741596,89.3610369 18.8411702,102.282315 C32.4293661,116.859531 50.1594737,124.001542 72.871851,124.001542 C75.4940982,124.001542 78.1844825,123.906563 80.9409392,123.716605 C88.4318942,123.198349 92.9867582,118.383325 93.127162,110.836622 C93.2283353,105.369133 92.8628725,99.4494619 92.0431621,93.2510477 L92.0431621,93.2489829 C91.7169298,90.7795281 91.438187,88.2852961 91.1594442,85.7869346 C90.3934176,78.9195376 89.602614,71.9674854 87.7938828,65.3581836 L92.6151011,66.4793491 C92.9991467,66.5701986 93.3873219,66.6135586 93.7734323,66.6135586 C94.7067046,66.6135586 95.6234587,66.3513339 96.4369748,65.8475321 C97.5849822,65.1310598 98.3840449,64.0119591 98.6916944,62.6967059 L99.20582,60.4915406 C99.8417666,57.7722496 98.1465973,55.0446996 95.4273064,54.4108178 Z M70.4354323,25.0540378 L77.7777245,25.0540378 C77.0674465,26.2743118 76.629717,27.6721554 76.629717,29.1835609 C76.629717,30.6949664 77.0674465,32.09281 77.7777245,33.313084 L70.4354323,33.313084 C68.1580003,33.313084 66.3059092,31.4609929 66.3059092,29.1835609 C66.3059092,26.9061289 68.1580003,25.0540378 70.4354323,25.0540378 Z M89.0182864,29.1835609 C89.0182864,31.4609929 87.1661953,33.313084 84.8887633,33.313084 C82.6113313,33.313084 80.7592402,31.4609929 80.7592402,29.1835609 C80.7592402,26.9061289 82.6113313,25.0540378 84.8887633,25.0540378 C87.1661953,25.0540378 89.0182864,26.9061289 89.0182864,29.1835609 Z M4.6356106,15.5974298 C4.52411347,15.4859326 4.46423538,15.3661765 4.42294015,15.2546793 C4.38577445,15.153506 4.36099731,15.0461384 4.36099731,14.9387708 L4.36099731,14.9367061 C4.36099731,14.8293385 4.38577445,14.7219709 4.42294015,14.6187328 C4.46423538,14.5093004 4.52411347,14.391609 4.6356106,14.2801119 L6.23993034,12.6757921 C6.47531315,12.4404093 6.7519912,12.4032436 6.89652451,12.4032436 C7.03899306,12.4032436 7.31773587,12.4404093 7.55518346,12.6778569 L18.6408883,23.7635618 L19.5720958,23.7036837 C20.1171928,23.666518 20.7180385,23.666518 21.3787622,23.7119427 C21.7277069,23.7325904 22.1055582,23.7367199 22.5040572,23.7243313 C22.7415048,23.7160723 22.9975352,23.6912951 23.2473714,23.6706475 C23.4187466,23.6561942 23.5818628,23.6479351 23.7594323,23.6272875 C24.0175275,23.5963161 24.2797522,23.5508913 24.5440417,23.5054666 C24.731935,23.4744952 24.9156987,23.4476533 25.1056568,23.4084228 C25.3554929,23.3588685 25.6011996,23.2927961 25.8510357,23.2287885 C26.0616414,23.1751047 26.2722471,23.1234857 26.480788,23.0594781 C26.7120413,22.9892762 26.9371003,22.9087505 27.1642241,22.8282248 C27.3892831,22.7476991 27.6102126,22.6651086 27.8290773,22.5721944 C28.0355535,22.4854744 28.2358353,22.3904953 28.4361172,22.2934515 C28.6611762,22.1840192 28.8779762,22.0663278 29.0885819,21.9424421 C29.2682161,21.8371392 29.4416561,21.7277069 29.6089018,21.6120802 C29.8153779,21.4716764 30.0074008,21.3209488 30.1952941,21.164027 C30.3460217,21.0380765 30.490555,20.9141908 30.6268292,20.7779165 C30.6887721,20.7159737 30.7651683,20.6643547 30.8250463,20.6003471 C34.291781,23.4166818 37.2154834,27.4863269 35.4418532,32.6399718 C33.4328402,38.4791175 22.7415048,47.7189255 12.2834875,51.5882887 C12.5353884,50.8594279 12.7728359,50.1346966 13.0536435,49.3955119 C15.457026,43.0773415 15.6284012,35.7226608 15.7811935,29.2289857 C15.7915174,28.7458314 15.8307478,28.3184258 15.8720431,27.8889554 L15.9608278,26.922647 L4.6356106,15.5974298 Z M87.0588277,86.2411821 C87.3396353,88.7684503 87.6204429,91.2895242 87.9528695,93.7878857 C88.7478027,99.7839533 89.1008769,105.493019 89.0017683,110.756096 C88.9026598,116.089375 85.9417917,119.229878 80.6621964,119.591211 C55.3378957,121.342129 36.1211598,114.753475 21.8639811,99.4639152 C10.1794954,86.9308125 6.53519124,72.7830662 10.8092477,56.3888593 C22.6300077,53.0460104 36.5052054,42.2514369 39.3504469,33.9841316 C41.5845189,27.4925212 38.933365,21.2300993 31.9049166,16.2519592 C31.7335414,15.2422908 31.4114386,14.1975214 31.0831415,13.1651406 C30.758974,12.1472132 30.4244826,11.09212 30.3047264,10.2476325 C30.0548903,8.43270712 30.0755379,7.57789583 30.1188979,7.1979797 C31.304071,6.55583886 32.9372974,6.31839127 33.4039335,6.55170933 C34.2897163,7.00182735 35.1259447,8.05692052 35.8444817,9.01496989 C37.3971824,11.0817962 40.2899134,11.6578647 42.4352007,10.3116402 C45.6727468,8.28404429 49.1477405,7.9020634 52.4843952,9.21525176 L53.7438998,9.71079453 L57.8362572,5.61637234 C59.4447065,4.00379355 62.0690184,4.00792308 63.6774677,5.61637234 C65.285917,7.2248216 65.285917,9.8470688 63.6774677,11.4555181 L59.6470531,15.4859326 L60.3655901,16.834222 C60.97263,17.9760351 61.501209,19.1963092 61.9327442,20.4558137 C62.3828622,21.7751964 63.3326525,22.8240953 64.5219552,23.4228761 C64.3423209,23.6066399 64.1998524,23.8213751 64.038801,24.021657 C63.8818791,24.2157446 63.7063744,24.3974436 63.5659706,24.6059845 C63.4007896,24.8516911 63.2789687,25.1221749 63.1426944,25.3864644 C63.0353268,25.5929405 62.9073116,25.7849634 62.8164621,25.9996986 C62.6843174,26.3156071 62.6017269,26.6521632 62.5088126,26.9866546 C62.4571936,27.1724831 62.3787327,27.3459231 62.341567,27.5358812 C62.2321346,28.0685897 62.1743213,28.619881 62.1743213,29.1835609 C62.1743213,29.7967951 62.2527822,30.3914464 62.3807974,30.9675149 C62.4220927,31.1554082 62.4943593,31.3288482 62.5501079,31.5105472 C62.661605,31.8904633 62.7834259,32.2641852 62.9465421,32.6172594 C63.0394564,32.8175413 63.1509535,33.001305 63.2583211,33.1933279 C63.4338258,33.5051069 63.6175896,33.8065621 63.8281953,34.0914992 C63.9644695,34.2752629 64.1110676,34.4445734 64.2617952,34.6159486 C64.4909837,34.8761085 64.7325609,35.1197504 64.9927208,35.3489389 C65.0897646,35.4335942 65.164096,35.5409618 65.2652693,35.6214875 C64.3856809,36.1438722 63.7600582,37.0213958 63.5680353,38.0826833 C63.285163,39.6250602 63.9851172,41.1302713 65.3499246,41.912816 C70.8958741,45.1090669 74.8953173,48.8999691 77.8417321,53.1265361 L78.3785701,53.9565702 C78.4363834,54.0432902 78.4880024,54.1341397 78.5458158,54.2208597 C80.2802155,56.9174383 81.6821886,59.855594 82.8260665,63.198443 L83.1977236,64.2824428 L83.2080474,64.2845076 C85.376047,71.1271274 86.2081459,78.5912405 87.0588277,86.2411821 Z M95.187794,59.5520741 L94.6736684,61.7572394 C94.5972722,62.0855365 94.3784075,62.2610413 94.2586513,62.3374374 C94.1347656,62.4138336 93.8828647,62.5273955 93.5545676,62.4551288 L86.3506145,60.7764777 C86.346485,60.7661539 86.3423554,60.7578948 86.3402907,60.7496358 C85.5247099,58.521758 84.5687253,56.3434346 83.4041997,54.2435721 L89.1752083,48.0637407 C89.4023321,47.8180341 89.6790101,47.7726093 89.8214787,47.766415 C89.966012,47.7767388 90.2468196,47.7870626 90.4904614,48.0183159 L92.1464002,49.5606928 C92.5221868,49.9117023 92.5407697,50.5042889 92.1897602,50.8800755 L86.8110563,56.6448898 L94.4899046,58.4309085 C94.9895769,58.5506647 95.3034207,59.0524018 95.187794,59.5520741 Z" id="Shape"></path>
                    <path d="M77.5485359,91.4732879 L72.3804377,94.919375 C68.870343,93.0672839 65.7153874,91.1140194 62.9155707,89.0616464 L70.4333675,89.0616464 C71.5751807,89.0616464 72.4981291,88.138698 72.4981291,86.9968849 C72.4981291,85.8550717 71.5751807,84.9321233 70.4333675,84.9321233 L58.0447981,84.9321233 C57.9993734,84.9321233 57.9622077,84.9548357 57.9167829,84.9569004 C52.5525323,79.9601774 49.0837329,74.4637821 47.5599389,68.5131393 C46.7773942,65.4531626 46.5956952,62.5212012 46.7588114,59.8163636 C46.7835885,59.7998455 46.8145599,59.7977807 46.8393371,59.7812626 C50.4671232,57.2457354 54.6998844,57.2539944 59.4323179,59.7915864 C61.1047748,60.6876929 62.799944,61.8955785 64.4703361,63.3450411 C64.3237381,63.6320429 64.2411476,63.9500162 64.2411476,64.2803781 L64.2411476,72.5394243 C64.2411476,73.6812375 65.164096,74.6041859 66.3059092,74.6041859 C67.4477223,74.6041859 68.3706707,73.6812375 68.3706707,72.5394243 L68.3706707,67.2536347 C69.5641029,68.6122478 70.7265637,70.0761638 71.8291464,71.6557064 C72.2297101,72.2297101 72.871851,72.5394243 73.5243156,72.5394243 C73.9310736,72.5394243 74.3419612,72.4176034 74.7032945,72.1677673 C75.6386315,71.5153026 75.8657552,70.2289562 75.2153553,69.2915544 C73.7762165,67.2309224 72.2379692,65.3313417 70.6419085,63.605201 L75.8017476,59.7358379 C76.7143722,59.0524018 76.9002008,57.7577963 76.2146999,56.8472364 C75.5312639,55.932547 74.2345936,55.750848 73.3260985,56.4342841 L67.6686518,60.6773691 C65.6018255,58.8232132 63.4833801,57.2767068 61.3814528,56.149347 C56.4549317,53.5064522 51.7142392,53.0831761 47.4752836,54.7989929 C48.8215082,48.831832 51.4499497,44.8612955 51.4933097,44.7952231 C52.1333858,43.8536919 51.8897439,42.5694102 50.9482126,41.9272693 C50.0108109,41.2830637 48.7265292,41.5246408 48.0823236,42.4641073 C47.7519617,42.9493263 40.1949344,54.2518311 43.341631,68.4945564 C43.0195282,68.5730174 42.7098139,68.7010326 42.4475892,68.9364154 C33.3110193,77.1355836 32.9785927,91.7809374 41.5597418,101.935435 L41.5267056,107.625918 C41.5205113,108.767731 42.4393302,109.696874 43.5790786,109.703068 C43.5832081,109.703068 43.5873376,109.703068 43.5914671,109.703068 C44.727086,109.703068 45.6500344,108.786314 45.6562287,107.650695 L45.6789411,103.508783 L49.7857518,103.508783 C50.927565,103.508783 51.8505134,102.585835 51.8505134,101.444022 C51.8505134,100.302208 50.927565,99.37926 49.7857518,99.37926 L44.8303241,99.37926 C37.8039405,91.178027 37.7192852,79.5121242 44.5515813,72.6653748 C46.68448,78.5045205 50.4980946,83.8873539 55.9800366,88.7725798 L55.9800366,99.37926 C55.9800366,100.521073 56.902985,101.444022 58.0447981,101.444022 C59.1866113,101.444022 60.1095597,100.521073 60.1095597,99.37926 L60.1095597,92.1257526 C63.1612773,94.3949256 66.6011701,96.5443424 70.4333675,98.5698735 L70.4333675,103.510848 C70.4333675,104.652661 71.356316,105.575609 72.4981291,105.575609 C73.6399423,105.575609 74.5628907,104.652661 74.5628907,103.510848 L74.5628907,98.4212106 L79.8383565,94.9049217 C80.7881468,94.2710399 81.0441773,92.9908877 80.4102955,92.0410974 C79.7805432,91.0954366 78.500391,90.8414709 77.5485359,91.4732879 Z" id="Shape"></path>
                </g>
            </g>
        </g>
    </g>
</svg>