
<svg width="127px" height="114px" viewBox="0 0 127 114" version="1.1" xmlns="http://www.w3.org/2000/svg" xmlns:xlink="http://www.w3.org/1999/xlink">
    <!-- Generator: Sketch 45.2 (43514) - http://www.bohemiancoding.com/sketch -->
    <desc>Created with Sketch.</desc>
    <defs></defs>
    <g id="Page-1" stroke="none" stroke-width="1" fill="none" fill-rule="evenodd">
        <g id="Текстовая-Copy" transform="translate(-804.000000, -362.000000)" fill-rule="nonzero" fill="#687734">
            <g id="Товар-Copy-2" transform="translate(752.000000, 320.000000)">
                <g id="liver" transform="translate(52.000000, 42.000000)">
                    <path d="M125.492468,2.26610104 C124.401343,0.932261143 122.789802,0.166943171 121.071117,0.166943171 L31.185614,0.166943171 C24.1031429,0.166943171 13.9484667,4.85724903 7.2289749,15.3333587 C-0.815610296,27.8736404 -6.17720934,52.0052093 13.7866566,95.7967037 L13.7626038,96.4461306 C13.7232445,97.6028541 14.1758755,98.7289648 15.0024189,99.5314554 C15.7677368,100.27928 16.7998228,100.694739 17.8647081,100.694739 C17.9434265,100.694739 18.0243315,100.690365 18.10305,100.685992 C23.5280611,100.373305 39.19084,98.4228376 48.0663419,86.9343216 L48.0663419,111.684705 C48.0663419,112.893907 49.0437622,113.871328 50.2529646,113.871328 C51.462167,113.871328 52.4395874,112.893907 52.4395874,111.684705 L52.4395874,78.9334688 C52.441774,78.9290956 52.441774,78.926909 52.4439607,78.9225357 C52.4898797,78.9225357 52.5401721,78.9225357 52.5882778,78.9225357 C53.1546131,78.9225357 53.8433992,78.9116026 54.6262102,78.8853631 L54.6262102,111.686891 C54.6262102,112.896094 55.6036306,113.873514 56.812833,113.873514 C58.0220354,113.873514 58.9994557,112.896094 58.9994557,111.686891 L58.9994557,78.5836092 C71.9748753,77.2825686 96.084578,71.1512784 100.755204,43.9475044 C114.907027,34.5625194 123.633838,22.1381288 126.673244,6.98920623 C127.009984,5.31425319 126.579219,3.59338106 125.492468,2.26610104 Z M72.1344988,71.3939935 C63.9893289,74.2366031 56.1153003,74.5667831 52.7391547,74.5580366 C53.7012688,70.7729926 57.108027,67.9522492 61.1882651,67.9522492 C62.3974675,67.9522492 63.3748879,66.9748289 63.3748879,65.7656265 C63.3748879,64.5564241 62.3974675,63.5790037 61.1882651,63.5790037 C55.6626694,63.5790037 50.9330043,67.0185613 49.0022164,71.8641174 C47.0714285,70.7904856 44.4737206,70.138872 41.5086602,70.138872 C40.2994578,70.138872 39.3220374,71.1162924 39.3220374,72.3254948 C39.3220374,73.5346972 40.2994578,74.5121176 41.5086602,74.5121176 C42.9408981,74.5121176 44.1347941,74.706727 45.1144011,74.9778682 C37.8897995,76.3204546 32.7621691,80.4378653 32.7621691,85.4452314 C32.7621691,86.6544338 33.7395894,87.6318542 34.9487918,87.6318542 C36.1579942,87.6318542 37.1354146,86.6544338 37.1354146,85.4452314 C37.1354146,82.6966466 41.3665297,79.6769206 47.7055491,79.0209337 C41.4649277,93.540109 24.0550372,95.9213412 18.1424092,96.3018135 L18.299846,91.5787083 C18.3501383,91.2922608 18.4091772,90.9992533 18.4725892,90.7018726 C18.5075752,90.5356893 18.549121,90.3629461 18.5906668,90.1923895 C18.6212796,90.0655654 18.6497057,89.9387413 18.6803184,89.8075439 C18.7371706,89.5801351 18.8005826,89.3483531 18.8639947,89.1121978 C18.8836743,89.0444125 18.9011673,88.9744406 18.9208469,88.9044687 C19.0017519,88.6223943 19.0870302,88.3359468 19.181055,88.0451259 C19.1854282,88.0320062 19.1898015,88.0188865 19.1941747,88.0057667 C22.0739569,79.0865324 31.1265752,66.25543 58.6167968,59.1729588 L58.6146101,59.1663989 C58.7151948,59.1401594 58.8223393,59.1161066 58.922924,59.0898671 L58.922924,59.0920537 C60.215218,58.7640603 61.5512445,58.4491867 62.9156971,58.1474327 L64.035248,57.9047176 C65.5527642,57.583284 67.1052664,57.270597 68.7211806,56.9841494 C68.7233672,56.9841494 68.7255539,56.9841494 68.7277405,56.9841494 C69.4536992,56.8616985 81.2898883,54.7931534 94.2653079,47.8222 C94.4183715,47.7412949 94.5692485,47.6582032 94.722312,47.5772982 C95.0218794,47.4133015 95.3170734,47.2624245 95.6188274,47.0940546 C92.4635307,58.8886978 84.5807556,67.049174 72.1344988,71.3939935 Z M122.387463,6.12986348 C119.531734,20.3647778 111.189768,32.0325969 97.5867879,40.8118873 C96.0014864,41.8374134 94.3330932,42.8148338 92.6078478,43.752895 C92.5160097,43.8031873 92.4241715,43.8578529 92.3323334,43.9081452 C90.6027147,44.8396465 88.8053108,45.7230421 86.9444948,46.5627052 C84.9590413,47.4548473 83.0523063,48.2179787 81.2439693,48.8870852 C79.9341822,49.3747021 78.6178353,49.8338929 77.2949285,50.2580977 C76.9472555,50.3696155 76.6214487,50.4680135 76.2868954,50.5707848 C74.9049498,50.9971762 73.518631,51.3951416 72.1301255,51.7515611 C71.7474665,51.8499591 71.40854,51.9308642 71.0739867,52.0117692 L69.982862,52.2654174 C68.7627264,52.5387453 68.0280212,52.6699427 67.9974085,52.6743159 L67.9733556,52.6786891 C66.2415504,52.987003 64.5840903,53.3215562 62.9594296,53.6670426 L61.9841958,53.879145 C61.9470233,53.8878915 61.9142239,53.896638 61.8770513,53.9053845 C60.5694509,54.1962054 59.2924632,54.4957727 58.0548347,54.8106464 C57.9870494,54.8281393 57.9127042,54.8434457 57.8449189,54.8609387 C57.8427323,54.8609387 57.525672,54.9396571 57.525672,54.9396571 C57.4972459,54.946217 57.4710064,54.9549635 57.4425803,54.9637099 C55.682349,55.4185275 53.9964628,55.8995845 52.3739887,56.4003211 C52.2034322,56.4528001 52.0372488,56.505279 51.8688789,56.5577579 C26.455949,64.5214381 17.7225776,77.698027 14.8581018,87.227329 C14.8515419,87.2470086 14.844982,87.2666882 14.8384222,87.2841812 C-0.852782883,49.5452587 3.8593892,28.6848774 10.909061,17.6949113 C16.705798,8.65759941 25.4850885,4.54018872 31.185614,4.54018872 L69.8232385,4.54018872 C68.6993144,19.1927479 56.4432937,30.779662 41.5086602,30.779662 C40.2994578,30.779662 39.3220374,31.7570824 39.3220374,32.9662848 C39.3220374,34.1754872 40.2994578,35.1529076 41.5086602,35.1529076 C58.8573253,35.1529076 73.0638134,21.6067795 74.196484,4.54018872 L121.06893,4.54018872 C121.471268,4.54018872 121.849554,4.72167841 122.109762,5.03873872 C122.260639,5.22022841 122.492421,5.60288739 122.387463,6.12986348 Z" id="Shape"></path>
                </g>
            </g>
        </g>
    </g>
</svg>