
<svg width="120px" height="110px" viewBox="0 0 120 110" version="1.1" xmlns="http://www.w3.org/2000/svg" xmlns:xlink="http://www.w3.org/1999/xlink">
    <!-- Generator: Sketch 45.2 (43514) - http://www.bohemiancoding.com/sketch -->
    <desc>Created with Sketch.</desc>
    <defs></defs>
    <g id="Page-1" stroke="none" stroke-width="1" fill="none" fill-rule="evenodd">
        <g id="Текстовая-Copy" transform="translate(-807.000000, -618.000000)" fill-rule="nonzero" fill="#687734">
            <g id="Товар-Copy-6" transform="translate(752.000000, 585.000000)">
                <g id="lungs" transform="translate(55.000000, 33.000000)">
                    <path d="M118.26199,94.8261228 C110.363035,79.2100038 108.513153,65.0062676 106.881022,52.4766146 C106.135875,46.7491727 105.430682,41.3373694 104.218071,36.2292185 C101.283431,23.8793595 94.655021,16.3779489 84.5126344,13.9347465 C79.8200076,12.8000457 74.8836599,13.7369729 70.9701411,16.5018071 C69.8833854,17.2689287 68.9184903,18.1639039 68.0614716,19.1407854 L68.0614716,8.05947388 L68.0614716,0.0686237133 L52.0797713,0.0686237133 L52.0797713,8.05947388 L52.0797713,19.1407854 C51.2227526,18.1639039 50.2578574,17.2689287 49.1711018,16.5018071 C45.2555852,13.7369729 40.3212352,12.8000457 35.6286085,13.9347465 C25.4842242,16.3799466 18.855814,23.8813572 15.9211742,36.2292185 C14.6905833,41.4092871 13.9793976,47.1347312 13.22626,53.1957911 C11.5841403,66.3986733 9.72426992,81.3655356 1.87725505,96.8797713 C-0.128448342,100.843233 -0.400137247,103.875761 1.04820435,106.14716 C3.06589401,109.307541 7.78249333,109.942814 13.6617613,109.942814 C15.561586,109.942814 17.5832711,109.876889 19.6748761,109.808967 L20.9234464,109.767015 C42.7184903,109.075806 54.8525963,102.035867 58.0209684,88.2416622 C59.413374,82.1786047 58.3246207,74.0678917 57.2738239,66.22687 C56.6565307,61.6281357 56.0731986,57.2871064 56.0731986,53.8330614 C56.0731986,51.6375753 57.8591536,49.853618 60.0846054,49.853618 C62.2780938,49.853618 64.0640488,51.639573 64.0640488,53.8330614 C64.0640488,57.2871064 63.4807167,61.6281357 62.8634236,66.22687 C61.8126268,74.0678917 60.7238734,82.1766069 62.1162791,88.2416622 C65.2766603,101.997911 77.4107663,109.01987 99.2157987,109.711079 C107.260587,109.976775 115.898696,109.585223 118.919238,104.83666 C120.551369,102.279588 120.329623,98.9114449 118.26199,94.8261228 Z M64.0660465,16.0503241 L56.0751963,16.0503241 L56.0751963,12.054899 L64.0660465,12.054899 L64.0660465,16.0503241 Z M64.0660465,20.0457491 L64.0660465,24.0411742 L56.0751963,24.0411742 L56.0751963,20.0457491 L64.0660465,20.0457491 Z M59.3034998,31.7823103 C59.1576668,31.7543424 59.0218223,31.7024018 58.8839802,31.6584522 C58.7860923,31.6284865 58.6842089,31.6065116 58.5903164,31.5685551 C58.4045292,31.492642 58.2287305,31.3967518 58.0589249,31.2948685 C58.0209684,31.2728936 57.9790164,31.2569119 57.9410599,31.2329394 C57.7552726,31.1150743 57.5834693,30.9792299 57.4216546,30.8313992 C57.4036752,30.8154175 57.3817003,30.8014335 57.3637209,30.7854518 C57.2158902,30.6476096 57.0840412,30.4937857 56.9581853,30.3359665 C56.9282196,30.3000076 56.8942585,30.2680442 56.8662905,30.2300877 C56.7803889,30.1142204 56.7104689,29.984369 56.6365536,29.8585132 C56.5786199,29.7586275 56.5106977,29.6627373 56.4607549,29.5568586 C56.4367823,29.5089135 56.4227983,29.4569729 56.4028212,29.4070301 C56.3229127,29.2192451 56.250995,29.0294624 56.2010522,28.8296912 C56.1990545,28.8197026 56.1950591,28.8117118 56.1930614,28.8017232 C56.1511094,28.6279222 56.1351277,28.4441327 56.1171483,28.2623408 C56.1091575,28.18443 56.0971712,28.1105147 56.0931758,28.0326039 L64.0580557,28.0326039 C64.0560579,28.1105147 64.042074,28.1864278 64.0340831,28.2623408 C64.0161037,28.4441327 64.000122,28.6279222 63.95817,28.8017232 C63.9561723,28.8117118 63.9521769,28.8197026 63.9501792,28.8296912 C63.9002364,29.0294624 63.8283187,29.2192451 63.7484102,29.4070301 C63.7264354,29.4549752 63.7124514,29.5089135 63.6904766,29.5568586 C63.6405337,29.6627373 63.5746092,29.7586275 63.5146778,29.8585132 C63.4407625,29.984369 63.3708425,30.1142204 63.2849409,30.2300877 C63.2569729,30.2680442 63.2230118,30.3000076 63.1930461,30.3359665 C63.0651925,30.4937857 62.9333435,30.6476096 62.7875105,30.7854518 C62.7695311,30.8014335 62.7475562,30.8154175 62.7295768,30.8313992 C62.5657644,30.9772322 62.3939611,31.1150743 62.2101716,31.2329394 C62.172215,31.2569119 62.1302631,31.2728936 62.0923065,31.2948685 C61.9205032,31.3967518 61.7467022,31.492642 61.560915,31.5685551 C61.4670225,31.6065116 61.3651392,31.6264888 61.2672512,31.6584522 C61.1274114,31.7024018 60.9915669,31.7543424 60.8477316,31.7823103 C60.5980175,31.8302554 60.3423103,31.8582234 60.08061,31.8582234 C59.8189096,31.8582234 59.5532139,31.8302554 59.3034998,31.7823103 Z M56.0751963,4.0640488 L64.0660465,4.0640488 L64.0660465,8.05947388 L56.0751963,8.05947388 L56.0751963,4.0640488 L56.0751963,4.0640488 Z M115.55509,102.689119 C113.347617,106.157148 102.813679,105.821533 99.34565,105.719649 C79.3385589,105.084377 68.7486847,99.2470606 66.0138162,87.3486847 C64.7832253,81.9908197 65.8220358,74.2476859 66.8268852,66.7582615 C67.4621578,62.0256805 68.0614716,57.5547998 68.0614716,53.8330614 C68.0614716,49.4360961 64.4835684,45.8581929 60.0546397,45.8581929 C55.6576744,45.8581929 52.0797713,49.4360961 52.0797713,53.8330614 C52.0797713,57.5528021 52.679085,62.0256805 53.3143576,66.7582615 C54.319207,74.2476859 55.3580175,81.9908197 54.1274266,87.3486847 C51.4225238,99.1232024 40.5190088,105.150301 20.7955928,105.777583 L19.5430271,105.817537 C13.1303698,106.025299 5.86069386,106.26902 4.41834541,104.003614 C3.81903164,103.064689 4.18261533,101.176851 5.44317194,98.6877011 C13.6038277,82.5521769 15.5116432,67.2197331 17.1917194,53.6952192 C17.930873,47.7440335 18.6300724,42.1244682 19.8107205,37.1601525 C22.4037514,26.2426535 27.8854746,19.9178955 36.5675334,17.8222951 C37.5903622,17.5765764 38.6171864,17.4527183 39.6320244,17.4527183 C42.2070759,17.4527183 44.7022188,18.2418147 46.8677392,19.7700648 C49.8083721,21.8456881 51.706199,25.0500191 52.0717804,28.5560046 C52.0977507,28.8117118 52.1696683,29.0494396 52.2196111,29.2971559 C52.2435837,29.4310027 52.2675562,29.560854 52.2975219,29.692703 C52.3694396,29.9823713 52.4593366,30.2620511 52.56122,30.5397331 C52.651117,30.7934426 52.7430118,31.041159 52.8568814,31.2828822 C52.9327945,31.4407015 53.0206939,31.5905299 53.1065955,31.7443538 C53.2744034,32.0460084 53.4502021,32.3396721 53.6539687,32.6153565 C53.721891,32.7072512 53.797804,32.7891575 53.8697217,32.8770568 C54.1114449,33.1767137 54.3631567,33.4643843 54.6468319,33.7260846 C54.7107587,33.786016 54.7826763,33.8359588 54.8505986,33.8938925 C55.1542509,34.1555928 55.465894,34.4053069 55.8075029,34.6210599 C55.8814182,34.669005 55.9633244,34.7029661 56.0392375,34.7469157 C56.3848418,34.9486847 56.7344415,35.1404651 57.1100114,35.2882958 C57.2178879,35.3302478 57.3337552,35.3542204 57.4416317,35.3921769 C57.7972246,35.5160351 58.1548151,35.6358978 58.5303851,35.7098132 C58.8080671,35.7637514 59.0997331,35.7717423 59.3874037,35.7957148 C59.601159,35.8136942 59.8069234,35.8596416 60.024674,35.8596416 L60.1105757,35.8596416 C60.3283263,35.8596416 60.5340907,35.8116965 60.747846,35.7957148 C61.0355166,35.7717423 61.3271826,35.7637514 61.6048647,35.7098132 C61.9824323,35.6378955 62.3380252,35.5160351 62.693618,35.3921769 C62.8034922,35.3542204 62.9193595,35.3322455 63.0252383,35.2882958 C63.4008082,35.1384674 63.7524056,34.9486847 64.0960122,34.7469157 C64.1719253,34.7029661 64.2538315,34.669005 64.3277469,34.6210599 C64.6693557,34.4053069 64.9809989,34.1575905 65.2846512,33.8938925 C65.3505757,33.8359588 65.4224933,33.786016 65.4884178,33.7260846 C65.7700953,33.4643843 66.0218071,33.1767137 66.265528,32.8770568 C66.3374457,32.7891575 66.4133587,32.7052535 66.481281,32.6153565 C66.6850477,32.3396721 66.8608464,32.0460084 67.0286542,31.7443538 C67.1145559,31.5925276 67.2024552,31.4426992 67.2783683,31.2828822 C67.3922379,31.041159 67.4861304,30.7934426 67.5740297,30.5397331 C67.6759131,30.2640488 67.7658101,29.984369 67.8377278,29.692703 C67.8676935,29.560854 67.891666,29.4310027 67.9156386,29.2971559 C67.9635837,29.0494396 68.0355013,28.8117118 68.0634693,28.5560046 C68.4310484,25.0480213 70.3268776,21.8456881 73.2675105,19.7700648 C76.2860541,17.6385055 79.9438658,16.9532901 83.5697141,17.8202974 C92.2497751,19.9139001 97.7314983,26.238658 100.326527,37.1581548 C101.491193,42.0625391 102.182402,47.372459 102.915562,52.9980175 C104.587648,65.8473046 106.483477,80.4086313 114.692078,96.6340526 C116.082486,99.3689211 116.370156,101.406588 115.55509,102.689119 Z" id="Shape"></path>
                    <path d="M71.7013039,40.3644834 C80.2634998,37.7794434 86.0408845,32.4075944 86.0408845,26.0368891 C86.0408845,24.932154 85.1459093,24.0391765 84.0431719,24.0391765 C82.9404346,24.0391765 82.0454594,24.932154 82.0454594,26.0368891 C82.0454594,32.5334502 71.9809836,38.0231643 60.0706214,38.0231643 C48.1602592,38.0231643 38.0957835,32.5334502 38.0957835,26.0368891 C38.0957835,24.932154 37.2008082,24.0391765 36.0980709,24.0391765 C34.9953336,24.0391765 34.1003584,24.932154 34.1003584,26.0368891 C34.1003584,32.4075944 39.877743,37.7794434 48.439939,40.3644834 C35.4328326,45.6883873 26.1095082,59.6224323 26.1095082,75.9797026 C26.1095082,77.0844377 27.0044834,77.9774152 28.1072207,77.9774152 C29.2099581,77.9774152 30.1049333,77.0844377 30.1049333,75.9797026 C30.1049333,57.2531453 43.547541,42.0185894 60.0706214,42.0185894 C76.5937019,42.0185894 90.0363096,57.2531453 90.0363096,75.9797026 C90.0363096,77.0844377 90.9312848,77.9774152 92.0340221,77.9774152 C93.1367594,77.9774152 94.0317347,77.0844377 94.0317347,75.9797026 C94.0317347,59.6224323 84.7084102,45.6883873 71.7013039,40.3644834 Z" id="Shape"></path>
                </g>
            </g>
        </g>
    </g>
</svg>