
<svg width="50px" height="65px" viewBox="0 0 50 65" version="1.1" xmlns="http://www.w3.org/2000/svg" xmlns:xlink="http://www.w3.org/1999/xlink">
    <!-- Generator: Sketch 45.2 (43514) - http://www.bohemiancoding.com/sketch -->
    <desc>Created with Sketch.</desc>
    <defs></defs>
    <g id="Page-1" stroke="none" stroke-width="1" fill="none" fill-rule="evenodd">
        <g id="Текстовая-Copy-2" transform="translate(-519.000000, -711.000000)" fill-rule="nonzero">
            <g id="Контент" transform="translate(200.000000, 0.000000)">
                <g id="Основной-контент" transform="translate(0.000000, 218.000000)">
                    <g id="Карта" transform="translate(40.000000, 250.000000)">
                        <g id="maps-and-flags-(1)" transform="translate(279.000000, 243.000000)">
                            <path d="M49.9809045,24.9809045 C49.9809045,44.9840452 27.3991206,63.5096734 27.3991206,63.5096734 C26.0796482,64.5922111 23.9202261,64.5922111 22.6007538,63.5096734 C22.6007538,63.5096734 0.0189698492,44.9840452 0.0189698492,24.9809045 C0.0192211055,11.1842965 11.2035176,0 25,0 C38.7964824,0 49.9809045,11.1842965 49.9809045,24.9809045 Z" id="Shape" fill="#687734"></path>
                            <path d="M25,37.548995 C18.0698492,37.548995 12.4320352,31.9109296 12.4320352,24.9810302 C12.4320352,18.0511307 18.0701005,12.4128141 25,12.4128141 C31.9298995,12.4128141 37.5679648,18.0508794 37.5679648,24.9807789 C37.5679648,31.9106784 31.9301508,37.548995 25,37.548995 Z" id="Shape" fill="#FFFFFF"></path>
                        </g>
                    </g>
                </g>
            </g>
        </g>
    </g>
</svg>