
<svg width="135px" height="108px" viewBox="0 0 135 108" version="1.1" xmlns="http://www.w3.org/2000/svg" xmlns:xlink="http://www.w3.org/1999/xlink">
    <!-- Generator: Sketch 45.2 (43514) - http://www.bohemiancoding.com/sketch -->
    <desc>Created with Sketch.</desc>
    <defs></defs>
    <g id="Page-1" stroke="none" stroke-width="1" fill="none" fill-rule="evenodd">
        <g id="Текстовая-Copy" transform="translate(-544.000000, -351.000000)" fill-rule="nonzero" fill="#687734">
            <g id="Товар-Copy" transform="translate(496.000000, 320.000000)">
                <g id="stomach" transform="translate(48.000000, 31.000000)">
                    <path d="M117.860495,13.0847959 C107.619614,3.26709095 97.3924563,-1.05388869 87.4649542,0.245378876 C75.3620938,1.82828936 67.5573386,11.277716 64.9999774,14.8598516 C53.6336737,12.1812559 51.3233563,2.49851013 51.2227089,2.04788388 C50.9527906,0.817239601 49.7381584,0.0212094721 48.5075141,0.300277506 C47.272295,0.563333439 46.4854146,1.78025306 46.750758,3.01775967 C46.8719925,3.58504551 49.9142915,16.9528618 65.6564735,19.6589068 L67.1867728,19.9173878 L67.9965276,18.5975333 C68.0720133,18.4740113 75.6091376,6.3894505 88.0917135,4.77680326 C96.5666895,3.67654323 105.517454,7.58807058 114.694674,16.385576 C133.104015,34.0377728 132.779198,56.7337813 126.337759,72.0893855 C118.260798,91.3427924 100.308946,103.468527 80.5088403,102.802881 L80.3121202,102.798306 L80.1222624,102.825756 C79.9575666,102.853205 63.2592334,105.003401 43.8731548,93.4060658 L42.1415605,92.4018784 L40.8949042,93.9664894 C40.8308558,94.0465499 39.2891192,95.94284 36.5258882,96.0983861 C33.7352079,96.2905313 30.4092659,94.5246254 26.9712392,91.0888862 C24.6906587,88.8083056 21.5042507,88.1312225 18.6472345,89.3069682 C16.4787386,90.2013583 11.4372145,93.5570371 11.4372145,105.298481 C11.4372145,106.563437 12.4619889,107.585924 13.7246574,107.585924 C14.9873259,107.585924 16.0121003,106.563437 16.0121003,105.298481 C16.0121003,97.9603647 18.2766688,94.4079658 20.3971283,93.5295878 C21.5408498,93.0492248 22.7577694,93.3443049 23.7345075,94.3187556 C28.2247579,98.8112934 32.630373,100.931753 36.9056037,100.65726 C39.700859,100.467402 41.7687073,99.2459076 43.0382382,98.2165583 C57.3439061,106.352993 69.9522913,107.599649 76.3456942,107.599649 C78.5485017,107.599649 80.0147526,107.450965 80.5545892,107.384629 C102.109164,107.869567 121.76516,94.8151307 130.555803,73.8621537 C139.527155,52.4814249 134.661764,29.1929688 117.860495,13.0847959 Z" id="Shape"></path>
                    <path d="M14.6510718,78.0092877 C25.157297,71.7554188 40.8788921,80.1366096 41.0344382,80.2235324 L42.6630975,81.1064854 L43.864005,79.699708 C50.5547755,71.8720784 60.8025197,75.1019478 61.2256967,75.2369069 L63.8814179,76.1244347 L64.2199594,73.3451916 C64.9908277,67.0272743 73.9027052,63.6189844 73.9942029,63.5846728 L75.4856157,63.0242493 L75.4856157,47.4376133 L74.21151,46.8085665 C67.8615685,43.6679074 67.481853,35.3301781 67.4772781,35.2546925 L67.420092,33.4110135 L65.6084372,33.0747594 C38.8430679,28.1110083 34.9955889,9.39515047 34.8446177,8.59912035 C34.613586,7.36390118 33.4355529,6.52669708 32.186609,6.76687858 C30.9445275,6.99333543 30.1187607,8.18280574 30.3452175,9.42488723 C30.5099134,10.3284272 34.6227357,31.1967688 63.0945375,37.235618 C63.5680382,40.360265 65.2149971,46.6667451 70.9107299,50.1985569 L70.9107299,59.9339139 C68.1154747,61.2537685 62.2367464,64.6208844 60.2581083,70.30518 C56.243646,69.5686234 48.0454507,69.0882604 41.6177361,75.4038902 C36.9193284,73.207945 22.9956635,67.7272319 12.3247423,74.0657361 C4.14713398,78.9265523 0,89.435065 0,105.298481 C0,106.563437 1.02477442,107.585924 2.2874429,107.585924 C3.55011138,107.585924 4.5748858,106.563437 4.5748858,105.298481 C4.5748858,91.1712341 7.96487618,81.9894383 14.6510718,78.0092877 Z" id="Shape"></path>
                </g>
            </g>
        </g>
    </g>
</svg>